<?xml version="1.0" encoding="utf-8"?>
<!-- Svg Vector Icons : http://www.onlinewebfonts.com/icon -->
<!DOCTYPE svg PUBLIC "-//W3C//DTD SVG 1.1//EN" "http://www.w3.org/Graphics/SVG/1.1/DTD/svg11.dtd">
<svg version="1.1" xmlns="http://www.w3.org/2000/svg" xmlns:xlink="http://www.w3.org/1999/xlink" x="0px" y="0px" viewBox="0 0 1000 1000" enable-background="new 0 0 1000 1000" xml:space="preserve">
<metadata> Svg Vector Icons : http://www.onlinewebfonts.com/icon </metadata>
<g><path d="M146,327.4c-16.9,0-31.2,5.9-43,17.7c-11.8,11.8-17.7,25.9-17.7,42.4v253.3c0,16.9,5.9,31.2,17.7,43c11.8,11.8,26.1,17.7,43,17.7c16.9,0,31.1-5.9,42.7-17.7c11.6-11.8,17.4-26.1,17.4-43V387.5c0-16.5-5.9-30.6-17.7-42.4C176.7,333.3,162.5,327.4,146,327.4z"/><path d="M229.7,730.9c0,18.1,6.3,33.4,18.8,45.9c12.6,12.6,27.9,18.8,45.9,18.8h43.6l0.6,133.7c0,16.9,5.9,31.2,17.7,43c11.8,11.8,25.9,17.7,42.4,17.7c16.9,0,31.2-5.9,43-17.7c11.8-11.8,17.7-26.1,17.7-43V795.6h81.3v133.7c0,16.9,5.9,31.2,17.7,43c11.8,11.8,26.1,17.7,43,17.7c16.9,0,31.2-5.9,43-17.7c11.8-11.8,17.7-26.1,17.7-43V795.6h44.2c17.7,0,32.8-6.3,45.3-18.8c12.6-12.6,18.9-27.9,18.9-45.9V338.6H229.7V730.9z"/><path d="M633.7,100.1L675.5,23c2.8-5.1,1.8-9-2.9-11.8c-5.1-2.4-9-1.2-11.8,3.5l-42.4,77.7C581.1,76,541.6,67.7,500,67.7c-41.6,0-81.1,8.2-118.4,24.7l-42.4-77.7c-2.7-4.7-6.7-5.9-11.8-3.5c-4.7,2.7-5.7,6.7-2.9,11.8l41.8,77.2c-42.4,21.6-76.2,51.7-101.3,90.4c-25.1,38.7-37.7,81-37.7,126.9h544.8c0-45.9-12.6-88.2-37.7-126.9C709.3,151.8,675.7,121.7,633.7,100.1z M391.9,212.3c-4.5,4.5-9.9,6.8-16.2,6.8c-6.3,0-11.6-2.3-15.9-6.8c-4.3-4.5-6.5-9.9-6.5-16.2c0-6.3,2.2-11.7,6.5-16.2c4.3-4.5,9.6-6.8,15.9-6.8c6.3,0,11.7,2.3,16.2,6.8c4.5,4.5,6.8,9.9,6.8,16.2C398.7,202.4,396.4,207.8,391.9,212.3z M640.2,212.3c-4.3,4.5-9.6,6.8-15.9,6.8c-6.3,0-11.7-2.3-16.2-6.8c-4.5-4.5-6.8-9.9-6.8-16.2c0-6.3,2.3-11.7,6.8-16.2c4.5-4.5,9.9-6.8,16.2-6.8c6.3,0,11.6,2.3,15.9,6.8c4.3,4.5,6.5,9.9,6.5,16.2C646.7,202.4,644.5,207.8,640.2,212.3z"/><path d="M896.9,344.8c-11.8-11.6-26.1-17.4-43-17.4c-16.5,0-30.6,5.8-42.4,17.4c-11.8,11.6-17.7,25.8-17.7,42.7v253.3c0,16.9,5.9,31.2,17.7,43c11.8,11.8,25.9,17.7,42.4,17.7c16.9,0,31.2-5.9,43-17.7c11.8-11.8,17.7-26.1,17.7-43V387.5C914.6,370.6,908.7,356.4,896.9,344.8z"/></g>
</svg>