<?xml version="1.0" encoding="utf-8"?>
<!-- Svg Vector Icons : http://www.onlinewebfonts.com/icon -->
<!DOCTYPE svg PUBLIC "-//W3C//DTD SVG 1.1//EN" "http://www.w3.org/Graphics/SVG/1.1/DTD/svg11.dtd">
<svg version="1.1" xmlns="http://www.w3.org/2000/svg" xmlns:xlink="http://www.w3.org/1999/xlink" x="0px" y="0px" viewBox="0 0 1000 1000" enable-background="new 0 0 1000 1000" xml:space="preserve">
<metadata> Svg Vector Icons : http://www.onlinewebfonts.com/icon </metadata>
<g><g transform="translate(0.000000,306.000000) scale(0.100000,-0.100000)"><path d="M351.6,1246.7c-88.8-38.1-215.7-194.5-234.7-285.4C106.3,918.9,100-398.3,100-1969.3v-2854.4l46.5-84.6c50.7-97.3,116.3-160.7,211.4-209.3c61.3-31.7,471.5-33.8,4643.1-33.8h4575.5l93,48.6c50.8,27.5,122.6,90.9,156.5,139.5l63.4,90.9l6.3,2911.4l4.2,2909.4l-46.5,95.1c-27.5,50.7-84.6,122.6-129,156.5l-82.5,65.5l-4611.4,4.2C1216.4,1274.1,406.6,1269.9,351.6,1246.7z M3736.7,293.1C4129.9,189.5,4472.5-5,4764.3-286.2l164.9-162.8l133.2,135.3c602.6,611.1,1507.5,833.1,2321.5,573c198.8-65.5,499-215.7,644.9-325.6c915.5-687.2,1209.4-1864.9,718.9-2877.6c-596.3-1232.7-2165.1-1670.3-3302.6-917.6c-188.2,124.7-450.4,346.7-450.4,382.7c0,10.6,230.5,19,549.7,19h549.7v74v74h-697.7h-697.7v-74c0-69.8,4.2-74,74-74c40.2,0,74-8.5,74-19c0-10.6-61.3-76.1-137.4-145.9C4091.9-4202,3176.4-4386,2377.2-4094.2c-699.9,258-1241.1,852.1-1437.8,1583.6c-48.6,179.7-55,245.3-55,562.4c-2.1,454.6,46.5,678.7,232.6,1048.7c327.7,657.6,974.7,1129.1,1712.6,1245.4C3055.9,381.9,3499.9,356.5,3736.7,293.1z"/><path d="M4698.7-637.2v-74h697.7h697.7v74v74h-697.7h-697.7V-637.2z"/><path d="M4550.7-933.2v-74h697.7h697.7v74v74h-697.7h-697.7V-933.2z"/><path d="M4385.8-1244.1l6.3-69.8l704.1-6.3l702-4.2v74v74h-710.4h-708.3L4385.8-1244.1z"/><path d="M1804.2-1857.2c-38.1-306.6-74-573-80.4-594.1c-8.5-33.8,4.2-38.1,145.9-31.7l154.3,6.3l50.7,416.5c29.6,230.5,57.1,412.3,61.3,408.1c8.5-8.5,105.7-733.7,110-809.8c0-21.1,35.9-25.4,139.5-21.1l141.7,6.3l158.6,416.5c88.8,230.5,162.8,414.4,167,412.3c4.2-4.2-16.9-190.3-46.5-412.3c-29.6-222-52.9-410.2-52.9-416.5s65.5-10.6,148-10.6h145.9l12.7,69.8c14.8,99.4,137.4,1055.1,137.4,1086.8c0,21.1-59.2,27.5-238.9,27.5h-236.8l-124.7-332c-69.8-183.9-131.1-342.5-139.6-351c-8.5-8.5-31.7,124.7-50.7,296c-21.1,171.3-42.3,329.8-46.5,351c-10.6,31.7-40.2,36-249.5,36h-236.8L1804.2-1857.2z"/><path d="M6343.7-1387.8c-148-76.1-164.9-90.9-177.6-158.6c-10.6-63.4-21.2-74-71.9-74c-52.9,0-59.2-8.5-71.9-97.3c-19-148-16.9-156.5,40.2-156.5c61.3,0,61.3,2.1,27.5-264.3c-27.5-224.1-8.4-306.6,80.3-346.8c59.2-25.4,321.4-31.7,359.4-6.3c14.8,8.5,27.5,61.3,31.7,118.4l8.5,105.7h-74l-74,2.1l4.2,126.9c2.1,69.8,10.6,158.6,16.9,196.6c10.6,63.4,19,67.7,97.2,67.7c90.9,0,93,2.1,114.2,154.3l12.7,99.4h-88.8h-86.7l14.8,158.6c8.5,86.7,10.6,158.6,6.3,158.6C6510.7-1305.4,6432.5-1343.4,6343.7-1387.8z"/><path d="M3542.2-1620.4c-137.4-21.1-234.7-76.1-298.1-169.2c-25.4-38.1-44.4-74-40.2-78.2c4.2-4.2,74-14.8,152.2-25.4c133.2-14.8,145.9-12.7,192.4,33.8c40.2,40.2,69.8,50.7,141.7,44.4c78.2-6.3,88.8-12.7,88.8-59.2c0-48.6-12.7-55-158.6-90.9c-300.2-69.8-376.4-97.3-431.3-164.9c-74-86.7-76.1-224.1-4.2-308.7c44.4-52.9,65.5-59.2,205.1-65.5c133.2-6.4,171.3,0,255.8,44.4c95.1,48.6,101.5,48.6,112.1,12.7c10.6-33.8,35.9-40.2,164.9-40.2H4075l2.1,133.2c0,71.9,8.5,230.5,16.9,353.1c19,222,19,222-38.1,289.7c-31.7,35.9-82.5,71.9-114.2,78.2C3817-1609.8,3645.8-1603.5,3542.2-1620.4z M3768.4-2134.2c0-141.7-260.1-268.5-304.5-148c-23.3,57.1,27.5,107.8,150.1,150.1C3770.5-2077.1,3768.4-2077.1,3768.4-2134.2z"/><path d="M4561.3-1620.4c-122.6-21.1-186.1-52.9-270.6-124.7c-171.3-150.1-215.7-460.9-90.9-625.8c82.5-105.7,167-137.4,376.4-137.4c198.7,0,355.2,57.1,433.4,156.4c25.4,29.6,48.6,55,55,55c4.2,0,21.1-29.6,38.1-65.6c40.2-97.3,158.6-145.9,367.9-145.9c209.3,0,308.7,27.5,401.7,107.8c99.4,86.7,131.1,196.6,88.8,298.1c-40.2,97.3-116.3,137.4-319.3,167c-171.3,25.4-226.2,59.2-181.8,114.2c35.9,44.4,158.6,40.2,205.1-6.3c31.7-33.8,61.3-38.1,181.8-29.6c154.3,10.6,173.4,33.8,107.8,126.9c-59.2,86.7-152.2,116.3-351,116.3c-152.2,0-200.9-8.5-283.3-50.7c-120.5-61.3-184-164.9-169.2-270.6c16.9-116.3,82.5-164.9,264.3-203c264.3-57.1,312.9-95.1,209.3-167c-67.7-48.6-139.5-42.3-194.5,19c-52.9,57.1-133.2,65.5-298.1,33.8c-46.5-8.4-148-10.6-224.1-2.1c-112.1,8.4-152.2,4.2-200.9-25.4c-114.2-69.8-213.6-38-249.5,82.5l-14.8,46.5l334.1,6.4l334.1,6.3l6.3,95.1c10.6,141.7-12.7,226.2-82.5,306.6C4944-1635.2,4747.3-1584.5,4561.3-1620.4z M4747.3-1836.1c19-14.8,40.2-52.9,48.6-84.6l12.7-59.2H4648c-179.7,0-203,23.3-107.8,116.3C4595.1-1806.5,4690.2-1793.8,4747.3-1836.1z"/><path d="M7161.9-1614.1c-23.2-6.3-67.7-35.9-99.4-65.5l-59.2-55v57.1c0,57.1-2.1,57.1-148,57.1c-80.3,0-148-2.1-150.1-4.2c0-4.2-27.5-198.7-59.2-433.4l-57.1-429.2h164.9c90.9,0,164.9,4.2,164.9,10.6s14.8,105.7,31.7,224.1c46.5,300.2,99.4,391.2,224.1,374.2c59.2-8.5,69.8,0,126.9,97.3c74,129,74,133.2,14.8,150.1C7233.8-1607.7,7206.3-1603.5,7161.9-1614.1z"/><path d="M7658.8-1622.5c-279.1-55-465.2-323.5-414.4-600.5c16.9-90.9,124.7-217.8,217.8-255.8c84.6-35.9,300.2-38.1,410.2-4.2c107.8,31.7,241,148,298.1,257.9c65.5,124.8,65.5,334.1,0,439.8C8088-1652.1,7866-1580.2,7658.8-1622.5z M7849.1-1874.1c80.3-80.3,40.2-315-65.5-389.1c-65.6-44.4-107.8-42.3-169.1,6.3c-93,74-50.7,332,63.4,393.3C7753.9-1821.3,7800.5-1825.5,7849.1-1874.1z"/><path d="M4396.4-2713.5c-8.5-6.3-14.8-40.2-14.8-74v-59.2h708.3h708.3v74v74h-693.5C4722-2698.7,4402.7-2705.1,4396.4-2713.5z"/><path d="M4550.7-3089.9v-74h697.7h697.7v74v74h-697.7h-697.7V-3089.9z"/></g></g>
</svg>