<?xml version="1.0" encoding="utf-8"?>
<!-- Svg Vector Icons : http://www.onlinewebfonts.com/icon -->
<!DOCTYPE svg PUBLIC "-//W3C//DTD SVG 1.1//EN" "http://www.w3.org/Graphics/SVG/1.1/DTD/svg11.dtd">
<svg version="1.1" xmlns="http://www.w3.org/2000/svg" xmlns:xlink="http://www.w3.org/1999/xlink" x="0px" y="0px" viewBox="0 0 1000 1000" enable-background="new 0 0 1000 1000" xml:space="preserve">
<metadata> Svg Vector Icons : http://www.onlinewebfonts.com/icon </metadata>
<g><g transform="translate(0.000000,301.000000) scale(0.100000,-0.100000)"><path d="M417.7,1204.3c-107.1-30-207.9-113.6-263.6-216.4l-47.1-90l-6.4-2845.8c-2.1-1872.9,2.1-2875.8,17.1-2927.2c32.1-122.1,109.3-220.7,214.3-280.7l96.4-53.6h4575.1h4575.1l96.4,53.6c60,34.3,117.9,92.1,160.7,158.6l64.3,105v2895.1V897.8l-47.1,90c-57.9,107.1-156.4,186.4-274.3,218.6C9465,1238.5,527,1236.4,417.7,1204.3z M9124.3-927.9c4.3-10.7-77.1-422.1-180-917.2c-105-495-188.6-902.2-190.7-904.3c0-4.3-105-6.4-231.4-6.4h-231.4l165,799.3c90,437.2,175.7,852.9,188.6,921.4l25.7,122.2h222.9C9015-912.9,9120-919.4,9124.3-927.9z M2369.8-1009.4c162.9-115.7,225-282.9,188.6-512.2c-42.9-261.4-201.4-475.7-422.1-576.5c-79.3-36.4-156.4-47.1-370.7-53.6l-272.1-8.6l-57.9-297.9l-60-297.9h-252.9c-192.9,0-250.7,6.4-244.3,27.9c4.3,12.9,87.9,407.1,182.1,872.2c94.3,465,177.9,863.6,184.3,885c10.7,36.4,47.1,38.6,522.9,32.1l510-6.4L2369.8-1009.4z M6760.6-990.1c180-98.6,246.4-231.4,231.4-465c-19.3-282.9-167.1-518.6-398.6-630c-109.3-51.4-152.2-57.8-394.3-66.4l-272.1-8.6l-23.6-122.1c-15-66.4-42.9-197.2-62.1-291.5l-36.4-171.4l-250.7-6.4c-195-4.3-248.6,0-240,21.4c4.3,15,87.9,413.6,182.1,885c96.4,471.4,177.9,870,182.1,885c6.4,19.3,124.3,25.7,495,25.7C6655.6-934.4,6659.9-934.4,6760.6-990.1z M3619.2-1371.5c152.1-75,212.1-167.2,210-319.3c0-62.2-45-323.6-98.6-580.7c-53.6-259.3-98.6-473.6-98.6-477.9c0-4.3-102.9-6.4-227.1-6.4h-227.1l12.9,68.6c12.9,64.3,10.7,64.3-25.7,32.1c-77.1-68.6-248.6-128.6-370.7-128.6c-235.7,0-351.4,126.4-351.4,381.4c2.1,347.2,235.7,527.2,732.9,563.6c212.1,17.1,244.3,47.1,147.9,143.6c-68.6,68.6-212.1,72.9-452.2,10.7c-92.1-23.6-171.4-42.9-175.7-42.9c-10.7,0,10.7,210,25.7,291.4c8.6,38.6,38.6,53.6,154.3,81.4c81.4,17.1,165,36.4,188.6,42.9c23.6,6.4,130.7,8.6,240,4.3C3467-1313.7,3522.7-1324.4,3619.2-1371.5z M8050.7-1358.6c49.3-23.6,120-70.7,154.3-107.1c100.7-109.3,98.6-207.9-21.4-786.5l-102.9-503.6h-229.3h-227.2l10.7,53.6c8.6,53.6-23.6,72.9-51.4,30c-32.1-51.4-210-111.4-340.7-111.4c-169.3-2.1-261.4,47.1-327.9,177.9c-87.9,167.1-36.4,439.3,107.1,572.2c120,113.6,413.6,199.3,677.1,199.3h113.6l-6.4,68.6c-12.8,130.7-192.9,160.7-499.3,81.4c-92.1-23.6-171.4-40.7-175.7-36.4c-8.6,10.7,30,317.2,42.9,327.9c6.4,6.4,96.4,30,199.3,53.6C7613.5-1287.9,7911.4-1296.5,8050.7-1358.6z M4512.7-1718.7c19.3-214.3,38.6-400.7,45-415.7c4.3-12.9,105,160.7,225,390l216.4,413.6l229.3,6.4c212.1,4.3,229.3,2.1,218.6-32.1c-4.3-21.4-246.4-482.2-533.6-1024.3l-522.9-985.7l-252.9-6.4c-227.1-4.3-252.9-2.1-240,30c6.4,19.3,81.4,154.3,162.9,302.1l150,267.9l-92.1,711.4c-51.4,390-90,717.9-85.7,726.4c6.4,8.6,107.1,12.9,227.1,10.7l218.6-6.4L4512.7-1718.7z"/><path d="M1671.3-1324.4c-15-45-96.4-443.6-96.4-469.3c0-42.9,285-10.7,370.7,42.9c141.4,87.9,190.7,300,90,398.6c-45,47.1-70.7,53.6-203.6,53.6C1729.1-1298.6,1677.7-1307.2,1671.3-1324.4z"/><path d="M6055.6-1527.9c-23.6-128.6-45-244.3-45-261.4c0-47.1,287.1-19.3,360,34.3c132.9,98.6,184.3,240,130.7,355.7c-32.1,72.9-105,100.7-263.6,100.7h-135L6055.6-1527.9z"/><path d="M3010.6-2194.4c-40.7-19.3-87.9-64.3-102.9-96.4c-25.7-51.4-23.6-68.6,4.3-111.4c45-70.7,117.9-85.7,212.1-47.1c87.9,38.6,135,100.7,154.3,214.3l15,79.3h-102.9C3132.7-2155.8,3051.3-2173,3010.6-2194.4z"/><path d="M7452.8-2188c-126.4-53.6-152.1-205.7-45-267.9c51.4-27.9,68.6-27.9,150,0c96.4,34.3,152.1,107.1,175.7,231.4l12.9,68.6h-113.6C7572.8-2158,7491.4-2170.8,7452.8-2188z"/></g></g>
</svg>