<?xml version="1.0" encoding="utf-8"?>
<!-- Svg Vector Icons : http://www.onlinewebfonts.com/icon -->
<!DOCTYPE svg PUBLIC "-//W3C//DTD SVG 1.1//EN" "http://www.w3.org/Graphics/SVG/1.1/DTD/svg11.dtd">
<svg version="1.1" xmlns="http://www.w3.org/2000/svg" xmlns:xlink="http://www.w3.org/1999/xlink" x="0px" y="0px" viewBox="0 0 1000 1000" enable-background="new 0 0 1000 1000" xml:space="preserve">
<metadata> Svg Vector Icons : http://www.onlinewebfonts.com/icon </metadata>
<g><g transform="translate(0.000000,301.000000) scale(0.100000,-0.100000)"><path d="M417.7,1204.3c-107.1-30-207.9-113.6-263.6-216.4l-47.1-90l-6.4-2845.8c-2.1-1872.9,2.1-2875.8,17.1-2927.2c32.1-122.1,109.3-220.7,214.3-280.7l96.4-53.6h4575.1h4575.1l96.4,53.6c60,34.3,117.9,92.1,160.7,158.6l64.3,105v2895.1V897.8l-47.1,90c-57.9,107.1-156.4,186.4-274.3,218.6C9465,1238.5,527,1236.4,417.7,1204.3z M2601.3-1030.8c51.4-60,68.6-126.4,184.3-756.4c68.6-379.3,128.6-685.7,132.9-681.5c4.3,2.1,111.4,312.9,240,690c128.6,375,246.4,715.7,259.3,754.3l25.7,68.6h287.1c158.6,0,287.1-8.6,287.1-19.3s-145.7-387.9-323.6-840c-177.9-452.2-370.7-945-428.6-1095l-109.3-274.3h-287.1H2582l-12.9,60c-6.4,32.1-115.7,467.2-240,968.6l-229.3,910.7l-150,79.3c-81.4,45-210,102.9-282.9,128.6c-75,27.9-135,55.7-135,66.4c0,8.6,227.2,15,505.7,10.7l505.7-6.4L2601.3-1030.8z M4787-992.2c0-21.4-75-520.7-167.1-1110l-165-1071.5l-272.1-6.4c-207.9-4.3-272.1,0-272.1,21.4c0,36.4,323.6,2140.8,334.3,2177.2c4.3,19.3,79.3,25.7,276.4,25.7C4763.5-955.8,4789.2-960.1,4787-992.2z M6306.3-1009.4c102.9-30,130.7-45,124.3-72.9c-4.3-19.3-21.4-107.1-34.3-195c-38.6-252.9-25.7-237.9-156.4-186.4c-81.5,32.1-165,42.9-304.3,45c-214.3,2.1-291.4-27.9-336.4-128.6c-36.4-79.3,25.7-147.9,289.3-308.6c274.3-167.2,362.2-248.6,424.3-392.2c90-212.2,10.7-527.1-173.6-685.7c-250.7-214.3-636.4-295.7-1035-220.7c-218.6,42.9-321.4,87.9-306.4,135c4.3,21.4,21.4,111.4,34.3,199.3c38.6,248.6,27.9,235.7,147.9,180c222.9-107.1,572.1-117.9,713.6-23.6c53.6,36.4,72.9,66.4,77.1,124.3c8.6,107.1-42.9,160.7-282.9,297.9c-270,152.2-340.7,212.1-407.1,347.2c-100.7,203.6-64.3,465,94.3,642.9C5397.8-996.5,5890.6-891.5,6306.3-1009.4z M7838.5-1002.9c23.6-98.6,422.2-2134.3,422.2-2157.9c0-15-79.3-23.6-244.3-23.6c-276.4,0-248.6-19.3-291.4,199.3l-23.6,122.1h-351.4h-349.3l-45-135c-25.7-72.9-53.6-145.7-62.1-160.7c-15-19.3-87.9-25.7-295.7-21.4l-278.6,6.4l370.7,932.2c203.6,512.2,394.3,994.3,426.4,1069.3c83.6,197.2,124.3,216.4,450,216.4C7819.2-955.8,7827.8-957.9,7838.5-1002.9z"/><path d="M7309.2-1969.4c-70.7-201.5-130.7-381.5-137.1-394.3c-6.4-21.4,45-27.9,214.3-27.9h222.9l-75,396.4c-42.9,218.6-81.4,396.4-87.9,396.4S7377.8-1765.8,7309.2-1969.4z"/></g></g>
</svg>